#Comment line ignore any data following # character 
#Hierarchical Translation and Rotation (.htr) file 
[Header]	
#Header keywords are followed by a single value 
FileType HTR		#Single word string
DataType HTRS		#Translation followed by rotation and scale data
FileVersion 1		#integer
NumSegments 23		#integer
NumFrames 4		#integer
DataFrameRate 30		#integer, data frame rate in this file
EulerRotationOrder ZYX
CalibrationUnits mm
RotationUnits Degrees
GlobalAxisofGravity Y
BoneLengthAxis Y
ScaleFactor 1.00
[SegmentNames&Hierarchy]
#CHILD	PARENT
MASTER GLOBAL
weapon MASTER
arm_lock_bottom_part1 weapon
arm_lock_bottom_part2 weapon
arm_lock_bottom_part3 weapon
arm_lock_bottom_part4 weapon
arm_lock_top_part1 weapon
arm_lock_top_part2 weapon
arm_lock_top_part3 weapon
front_lower_left_part1 weapon
front_lower_right_part1 weapon
front_top_left_part weapon
front_top_right_part1 weapon
scope_part1 weapon
scope_part2 weapon
front_lower_left_part2 front_lower_left_part1
front_lower_left_part3 front_lower_left_part2
front_lower_right_part2 front_lower_right_part1
front_lower_right_part3 front_lower_right_part2
front_top_left_part2 front_top_left_part
front_top_left_part3 front_top_left_part2
front_top_right_part2 front_top_right_part1
front_top_right_part3 front_top_right_part2
[BasePosition]
#SegmentName Tx, Ty, Tz, Rx, Ry, Rz, BoneLength
MASTER 0.000000 0.000000 0.000000 -90.000000 0.000000 0.000000 10.000000 
weapon 0.000000 0.000000 0.000000 0.000000 0.000000 0.000000 10.000000 
arm_lock_bottom_part1 0.000000 0.000000 0.000000 0.000000 0.000000 0.000000 10.000000 
arm_lock_bottom_part2 0.000000 0.000000 0.000000 0.000000 0.000000 0.000000 10.000000 
arm_lock_bottom_part3 0.000000 0.000000 0.000000 0.000000 0.000000 0.000000 10.000000 
arm_lock_bottom_part4 0.000000 0.000000 0.000000 0.000000 0.000000 0.000000 10.000000 
arm_lock_top_part1 0.000000 0.000000 0.000000 0.000000 0.000000 0.000000 10.000000 
arm_lock_top_part2 0.000000 0.000000 0.000000 0.000000 0.000000 0.000000 10.000000 
arm_lock_top_part3 0.000000 0.000000 0.000000 0.000000 0.000000 0.000000 10.000000 
front_lower_left_part1 0.000000 0.000000 0.000000 0.000000 0.000000 0.000000 10.000000 
front_lower_right_part1 0.000000 0.000000 0.000000 0.000000 0.000000 0.000000 10.000000 
front_top_left_part 0.000000 0.000000 0.000000 0.000000 0.000000 0.000000 10.000000 
front_top_right_part1 0.000000 0.000000 0.000000 0.000000 0.000000 0.000000 10.000000 
scope_part1 0.000000 0.000000 0.000000 0.000000 0.000000 0.000000 10.000000 
scope_part2 0.000000 0.000000 0.000000 0.000000 0.000000 0.000000 10.000000 
front_lower_left_part2 0.000000 0.000000 0.000000 0.000000 0.000000 0.000000 10.000000 
front_lower_left_part3 0.000000 0.000000 0.000000 0.000000 0.000000 0.000000 10.000000 
front_lower_right_part2 0.000000 0.000000 0.000000 0.000000 0.000000 0.000000 10.000000 
front_lower_right_part3 0.000000 0.000000 0.000000 0.000000 0.000000 0.000000 10.000000 
front_top_left_part2 0.000000 0.000000 0.000000 0.000000 0.000000 0.000000 10.000000 
front_top_left_part3 0.000000 0.000000 0.000000 0.000000 0.000000 0.000000 10.000000 
front_top_right_part2 0.000000 0.000000 0.000000 0.000000 0.000000 0.000000 10.000000 
front_top_right_part3 0.000000 0.000000 0.000000 0.000000 0.000000 0.000000 10.000000 
#Beginning of Data. Separated by tabs
#Fr	Tx	Ty	Tz	Rx	Ry	Rz	SF
[MASTER]
36 0.000000 -0.000019 0.000002 0.002458 -0.000000 0.000000 0.000019
37 0.000000 -0.000019 0.000002 0.002458 -0.000000 0.000000 0.000019
38 0.000000 -0.000019 0.000002 0.002458 -0.000000 0.000000 0.000019
39 0.000000 -0.000019 0.000002 0.002458 -0.000000 0.000000 0.000019
[weapon]
36 10.182457 -168.977844 -13.084106 -0.002473 -0.000000 -0.000020 169.789246
37 10.182476 -168.977844 -13.084106 -0.002473 -0.000000 -0.000020 169.789246
38 10.182457 -168.977844 -13.084106 -0.002473 -0.000000 -0.000020 169.789246
39 10.182457 -168.977844 -13.084106 -0.002473 -0.000000 -0.000020 169.789246
[arm_lock_bottom_part1]
36 -48.820000 98.566208 -83.498993 179.999985 0.000004 9.388626 138.096970
37 -48.820000 98.566170 -83.498993 179.999985 0.000004 9.388626 138.096939
38 -48.820000 98.566208 -83.498993 179.999985 0.000004 9.388626 138.096970
39 -48.820019 98.566170 -83.498993 179.999985 0.000004 9.388626 138.096939
[arm_lock_bottom_part2]
36 -49.022766 58.782005 -78.526535 -179.999985 -0.000001 6.576765 109.658440
37 -49.022751 58.781967 -78.526535 -179.999985 -0.000001 6.576765 109.658409
38 -49.022766 58.782005 -78.526535 -179.999985 -0.000001 6.576765 109.658440
39 -49.022766 58.781967 -78.526535 -179.999985 -0.000001 6.576765 109.658417
[arm_lock_bottom_part3]
36 -51.266422 -16.798210 -66.920395 -179.999985 -0.000001 4.326176 85.957924
37 -51.266422 -16.798286 -66.920395 -179.999985 -0.000001 4.326176 85.957939
38 -51.266422 -16.798210 -66.920395 -179.999985 -0.000001 4.326176 85.957924
39 -51.266422 -16.798248 -66.920395 -179.999985 -0.000001 4.326176 85.957932
[arm_lock_bottom_part4]
36 -40.078102 -93.503113 -59.330063 -179.999985 -0.000000 1.322129 117.767326
37 -40.078068 -93.503136 -59.330063 -179.999985 -0.000000 1.322129 117.767326
38 -40.078102 -93.503113 -59.330063 -179.999985 -0.000000 1.322129 117.767326
39 -40.078102 -93.503136 -59.330063 -179.999985 -0.000000 1.322129 117.767334
[arm_lock_top_part1]
36 -47.532558 61.554489 78.379364 0.000000 -0.000000 -9.999999 110.415680
37 -47.532539 61.554451 78.379364 0.000000 -0.000000 -9.999999 110.415665
38 -47.532558 61.554489 78.379364 0.000000 -0.000000 -9.999999 110.415680
39 -47.532558 61.554451 78.379364 0.000000 -0.000000 -9.999999 110.415672
[arm_lock_top_part2]
36 -45.622673 13.709908 63.393555 0.000000 -0.000000 -7.722126 79.297745
37 -45.622673 13.709869 63.393555 0.000000 -0.000000 -7.722126 79.297745
38 -45.622673 13.709908 63.393555 0.000000 -0.000000 -7.722126 79.297745
39 -45.622692 13.709869 63.393555 0.000000 -0.000000 -7.722126 79.297752
[arm_lock_top_part3]
36 -43.788544 -73.747208 72.061615 0.000000 0.000000 -4.533067 112.022163
37 -43.788509 -73.747231 72.061615 0.000000 0.000000 -4.533067 112.022163
38 -43.788544 -73.747208 72.061615 0.000000 0.000000 -4.533067 112.022163
39 -43.788544 -73.747231 72.061615 0.000000 0.000000 -4.533067 112.022171
[front_lower_left_part1]
36 -46.798534 475.071045 -43.538895 -17.980036 0.000052 32.194084 479.351898
37 -46.798515 475.071045 -43.538895 -17.980034 0.000051 32.194077 479.351898
38 -46.798534 475.071045 -43.538895 -17.980034 0.000051 32.194073 479.351898
39 -46.798515 475.070953 -43.538895 -17.980034 0.000051 32.194073 479.351807
[front_lower_right_part1]
36 26.433468 475.070984 -43.538742 -17.167988 -0.000012 -27.317900 477.793671
37 26.433447 475.070984 -43.538895 -17.167982 -0.000012 -27.317894 477.793671
38 26.433468 475.070984 -43.538742 -17.167982 -0.000012 -27.317898 477.793671
39 26.433468 475.070953 -43.538742 -17.167988 -0.000012 -27.317902 477.793640
[front_top_left_part]
36 -47.897224 494.788910 7.030945 -0.000000 0.000003 -0.000001 497.151520
37 -47.897205 494.788849 7.030945 -0.000000 0.000003 -0.000001 497.151459
38 -47.897224 494.788910 7.030945 -0.000000 0.000003 -0.000001 497.151520
39 -47.897205 494.788879 7.030945 -0.000000 0.000003 -0.000001 497.151489
[front_top_right_part1]
36 27.532139 494.788910 7.031097 0.000000 -0.000000 -0.000000 495.604218
37 27.532156 494.788910 7.031097 0.000000 -0.000000 -0.000000 495.604218
38 27.532139 494.788910 7.031097 0.000000 -0.000000 -0.000000 495.604218
39 27.532139 494.788879 7.031097 0.000000 -0.000000 -0.000000 495.604187
[scope_part1]
36 -10.754299 87.338936 156.453094 -5.035946 -13.104321 1.144632 179.502960
37 -10.754318 87.338905 156.453094 -5.034807 -13.047551 1.139449 179.502960
38 -10.754299 87.338936 156.453094 -5.033759 -12.996908 1.134864 179.502960
39 -10.754318 87.338974 156.453094 -5.032887 -12.952863 1.130914 179.502975
[scope_part2]
36 -10.754299 82.597351 156.859894 -5.550104 27.875458 -2.601306 177.603500
37 -10.754299 82.597305 156.859894 -5.546922 27.813387 -2.594450 177.603470
38 -10.754299 82.597351 156.859894 -5.543750 27.751308 -2.587601 177.603500
39 -10.754299 82.597305 156.859894 -5.541210 27.700459 -2.582157 177.603470
[front_lower_left_part2]
36 -55.193634 141.618408 32.268219 0.000000 -0.000000 12.932314 155.381317
37 -55.193481 141.618317 32.268372 0.000000 -0.000000 12.888304 155.381195
38 -55.193634 141.618408 32.268219 0.000000 -0.000000 12.851285 155.381317
39 -55.193596 141.618393 32.268219 0.000000 -0.000000 12.821735 155.381271
[front_lower_left_part3]
36 -10.943831 108.509407 -11.124877 35.862518 -7.831676 -25.543823 109.625824
37 -10.943755 108.509407 -11.124877 35.869198 -7.796543 -25.592888 109.625816
38 -10.943831 108.509445 -11.125030 35.875832 -7.761404 -25.641941 109.625877
39 -10.943755 108.509521 -11.125030 35.882439 -7.726257 -25.690983 109.625946
[front_lower_right_part2]
36 55.193668 141.618195 32.268372 0.000000 0.000000 -17.243698 155.381149
37 55.193668 141.618271 32.268219 0.000000 0.000000 -17.220407 155.381180
38 55.193668 141.618195 32.268372 0.000000 0.000000 -17.206652 155.381149
39 55.193707 141.618271 32.268219 0.000000 0.000000 -17.192898 155.381195
[front_lower_right_part3]
36 10.943813 108.509590 -11.124725 35.403713 9.935559 22.573935 109.625992
37 10.943851 108.509590 -11.124725 35.410309 9.908825 22.612053 109.625999
38 10.943870 108.509552 -11.124877 35.416599 9.883126 22.648821 109.625977
39 10.943793 108.509445 -11.124725 35.422623 9.858312 22.684191 109.625839
[front_top_left_part2]
36 -83.575058 137.400040 57.093201 9.841041 0.725119 18.112473 170.655197
37 -83.544655 137.400131 57.091518 9.840911 0.727452 18.099171 170.639816
38 -83.534294 137.400131 57.090912 9.840875 0.727636 18.098003 170.634537
39 -83.539413 137.400131 57.091217 9.840839 0.727821 18.096838 170.637161
[front_top_left_part3]
36 -28.216400 149.657059 49.959793 -26.030441 -2.240613 -63.113537 160.279083
37 -28.216400 149.656906 49.959793 -26.028860 -2.260837 -63.155029 160.278931
38 -28.216362 149.656830 49.959641 -26.027237 -2.280131 -63.194672 160.278809
39 -28.216400 149.656830 49.959869 -26.025755 -2.298396 -63.231953 160.278885
[front_top_right_part2]
36 78.094597 137.564072 52.886658 8.094762 0.902229 -21.110312 166.792206
37 78.053963 137.564011 52.888947 8.095160 0.899041 -21.087997 166.773849
38 78.028984 137.564011 52.890320 8.095435 0.897165 -21.074411 166.762604
39 78.020401 137.563934 52.890778 8.095469 0.896436 -21.069733 166.758667
[front_top_right_part3]
36 28.216488 149.657059 49.959641 -25.895111 3.545296 65.795906 160.279037
37 28.216476 149.657135 49.959564 -25.892904 3.562270 65.830986 160.279083
38 28.216450 149.657059 49.959717 -25.890833 3.578626 65.864700 160.279053
39 28.216393 149.656982 49.959641 -25.888821 3.594088 65.896530 160.278961
